<?xml version="1.0" encoding="utf-8"?>
<!DOCTYPE svg PUBLIC "-//W3C//DTD SVG 1.1//EN" "http://www.w3.org/Graphics/SVG/1.1/DTD/svg11.dtd">
<svg version="1.1" id="Ebene_1" xmlns="http://www.w3.org/2000/svg" xmlns:xlink="http://www.w3.org/1999/xlink" x="0px" y="0px"
	 width="226.77px" height="226.77px" viewBox="0 0 226.77 226.77" enable-background="new 0 0 226.77 226.77" xml:space="preserve">
<g enable-background="new    ">
	<path fill="#009FE3" d="M219.188,59.124v45.345H7.58V59.124c0-5.196,1.849-9.643,5.55-13.344c3.7-3.699,8.148-5.55,13.344-5.55
		h41.566V21.337c0-3.148,1.102-5.825,3.306-8.03c2.203-2.203,4.88-3.307,8.03-3.307h68.018c3.147,0,5.824,1.104,8.029,3.307
		c2.203,2.205,3.307,4.882,3.307,8.03v18.894h41.566c5.195,0,9.642,1.851,13.343,5.55C217.338,49.482,219.188,53.928,219.188,59.124
		z M219.188,115.805v56.681c0,5.195-1.85,9.645-5.55,13.344c-3.701,3.701-8.147,5.55-13.343,5.55H26.473
		c-5.196,0-9.644-1.849-13.344-5.55c-3.701-3.699-5.55-8.148-5.55-13.344v-56.681h79.353v18.894c0,2.048,0.747,3.819,2.244,5.313
		c1.495,1.497,3.266,2.244,5.314,2.244h37.787c2.046,0,3.817-0.747,5.314-2.244c1.494-1.494,2.242-3.266,2.242-5.313v-18.894
		H219.188z M83.154,40.231h60.459V25.115H83.154V40.231z M128.498,115.805v15.114H98.269v-15.114H128.498z"/>
</g>
<g enable-background="new    ">
	<path fill="none" stroke="#000000" stroke-miterlimit="10" d="M219.188,59.124v45.345H7.58V59.124c0-5.196,1.849-9.643,5.55-13.344
		c3.7-3.699,8.148-5.55,13.344-5.55h41.566V21.337c0-3.148,1.102-5.825,3.306-8.03c2.203-2.203,4.88-3.307,8.03-3.307h68.018
		c3.147,0,5.824,1.104,8.029,3.307c2.203,2.205,3.307,4.882,3.307,8.03v18.894h41.566c5.195,0,9.642,1.851,13.343,5.55
		C217.338,49.482,219.188,53.928,219.188,59.124z M219.188,115.805v56.681c0,5.195-1.85,9.645-5.55,13.344
		c-3.701,3.701-8.147,5.55-13.343,5.55H26.473c-5.196,0-9.644-1.849-13.344-5.55c-3.701-3.699-5.55-8.148-5.55-13.344v-56.681
		h79.353v18.894c0,2.048,0.747,3.819,2.244,5.313c1.495,1.497,3.266,2.244,5.314,2.244h37.787c2.046,0,3.817-0.747,5.314-2.244
		c1.494-1.494,2.242-3.266,2.242-5.313v-18.894H219.188z M83.154,40.231h60.459V25.115H83.154V40.231z M128.498,115.805v15.114
		H98.269v-15.114H128.498z"/>
</g>
</svg>
